<svg height="16.194" viewBox="0 0 59.716 16.194" width="59.716" xmlns="http://www.w3.org/2000/svg"><g fill="#f4586f" transform="translate(-625.71 -173.641)"><path d="m681.02 176.954c-1.276-1.553-2.722-3.313-5.576-3.313s-4.3 1.76-5.577 3.313c-1.217 1.481-2.267 2.76-4.4 2.76s-3.186-1.279-4.4-2.76c-1.275-1.553-2.721-3.313-5.574-3.313s-4.3 1.76-5.575 3.313c-1.217 1.481-2.268 2.76-4.4 2.76s-3.185-1.279-4.4-2.76c-1.275-1.553-2.721-3.313-5.573-3.313s-4.3 1.76-5.573 3.313c-1.186 1.445-2.221 2.689-4.253 2.748v1.519c2.75-.063 4.175-1.778 5.427-3.3 1.215-1.48 2.265-2.759 4.4-2.759s3.185 1.279 4.4 2.759c1.275 1.554 2.721 3.313 5.574 3.313s4.3-1.759 5.576-3.313c1.216-1.48 2.266-2.759 4.4-2.759s3.186 1.279 4.4 2.759c1.274 1.554 2.72 3.313 5.573 3.313s4.3-1.759 5.577-3.313c1.217-1.48 2.268-2.759 4.4-2.759s3.187 1.279 4.405 2.759c1.276 1.554 2.722 3.313 5.577 3.313v-1.517c-2.139-.003-3.19-1.282-4.408-2.763z"/><path d="m681.02 185.558c-1.276-1.554-2.722-3.314-5.576-3.314s-4.3 1.76-5.577 3.314c-1.217 1.48-2.267 2.758-4.4 2.758s-3.186-1.278-4.4-2.758c-1.275-1.554-2.721-3.314-5.574-3.314s-4.3 1.76-5.575 3.314c-1.217 1.48-2.268 2.758-4.4 2.758s-3.185-1.278-4.4-2.758c-1.275-1.554-2.721-3.314-5.573-3.314s-4.3 1.76-5.573 3.314c-1.186 1.443-2.221 2.687-4.253 2.748v1.517c2.75-.061 4.175-1.777 5.427-3.3 1.215-1.48 2.265-2.759 4.4-2.759s3.185 1.279 4.4 2.759c1.275 1.553 2.721 3.314 5.574 3.314s4.3-1.761 5.576-3.314c1.216-1.48 2.266-2.759 4.4-2.759s3.186 1.279 4.4 2.759c1.274 1.553 2.72 3.314 5.573 3.314s4.3-1.761 5.577-3.314c1.217-1.48 2.268-2.759 4.4-2.759s3.187 1.279 4.405 2.759c1.276 1.553 2.722 3.314 5.577 3.314v-1.519c-2.139-.002-3.19-1.28-4.408-2.76z"/></g></svg>